<svg xmlns="http://www.w3.org/2000/svg" width="20" height="17" viewBox="0 0 20 17">
    <path fill="#B0B0B0" d="M20 9.443c0-.403-.09-.789-.25-1.141-.016-.09-.035-.18-.059-.27l-1.737-4.417-.012-.04C17.335 1.718 16.47 0 14.277 0H5.892C3.644 0 2.85 1.761 2.229 3.565L.412 7.992C.15 8.424 0 8.918 0 9.443v1.375c0 .212.024.42.071.62-.045.121-.071.251-.071.389v4.088C0 16.514.474 17 1.058 17h2.195c.584 0 1.058-.486 1.058-1.085V13.87h11.503v2.045c0 .599.474 1.085 1.058 1.085h2.07c.584 0 1.058-.486 1.058-1.085v-4.089c0-.136-.026-.267-.07-.388.045-.2.07-.408.07-.62V9.442zM3.519 4.008c.691-2.002 1.248-2.613 2.373-2.613h8.384c1.117 0 1.739.682 2.37 2.605l1.268 2.635c-.414-.157-.87-.244-1.348-.244H3.433c-.43 0-.842.07-1.222.2l1.308-2.583zm1.089 7.332H2.29c-.417 0-.755-.348-.755-.776 0-.428.338-.775.755-.775h2.317c.417 0 .755.347.755.775 0 .428-.338.776-.755.776zm8.183-.156H7.402c-.264 0-.478-.22-.478-.49 0-.272.214-.491.478-.491h5.389c.264 0 .478.22.478.49 0 .272-.214.491-.478.491zm4.86.156h-2.317c-.418 0-.756-.348-.756-.776 0-.428.339-.775.756-.775h2.316c.418 0 .756.347.756.775 0 .428-.338.776-.756.776z"/>
</svg>
