<svg xmlns="http://www.w3.org/2000/svg" width="22" height="22" viewBox="0 0 22 22">
    <path fill="none" fill-rule="evenodd" stroke="#E9552B" stroke-linecap="round" stroke-linejoin="round" stroke-width="1.5" d="M21 15.92v3c.002.563-.233 1.101-.648 1.482-.415.38-.971.569-1.532.518-3.077-.334-6.033-1.386-8.63-3.07-2.416-1.535-4.465-3.584-6-6C2.5 9.241 1.448 6.271 1.12 3.18c-.05-.56.136-1.114.515-1.528C2.013 1.237 2.549 1 3.11 1h3c1.004-.01 1.86.726 2 1.72.127.96.361 1.903.7 2.81.275.73.099 1.555-.45 2.11L7.09 8.91c1.424 2.504 3.496 4.576 6 6l1.27-1.27c.555-.549 1.38-.725 2.11-.45.907.339 1.85.573 2.81.7 1.006.142 1.745 1.015 1.72 2.03z"/>
</svg>
